<svg xmlns="http://www.w3.org/2000/svg" xmlns:xlink="http://www.w3.org/1999/xlink" width="20" height="20" viewBox="0 0 20 20" version="1.1"><g id="surface1"><path style=" stroke:none;fill-rule:evenodd;fill:rgb(0%,0%,0%);fill-opacity:1;" d="M 0 24 C 0 10.746094 10.746094 0 24 0 C 37.253906 0 48 10.746094 48 24 C 48 37.253906 37.253906 48 24 48 C 10.746094 48 0 37.253906 0 24 Z M 24 11.199219 C 20.523438 11.199219 20.089844 11.214844 18.722656 11.277344 C 17.359375 11.339844 16.429688 11.554688 15.617188 11.871094 C 14.773438 12.199219 14.0625 12.636719 13.347656 13.347656 C 12.636719 14.058594 12.199219 14.773438 11.871094 15.613281 C 11.554688 16.429688 11.339844 17.359375 11.277344 18.722656 C 11.214844 20.085938 11.199219 20.523438 11.199219 24 C 11.199219 27.476562 11.214844 27.910156 11.277344 29.277344 C 11.339844 30.640625 11.554688 31.570312 11.871094 32.382812 C 12.199219 33.226562 12.636719 33.9375 13.347656 34.652344 C 14.058594 35.363281 14.773438 35.800781 15.613281 36.128906 C 16.429688 36.445312 17.359375 36.660156 18.722656 36.722656 C 20.085938 36.785156 20.523438 36.800781 24 36.800781 C 27.476562 36.800781 27.910156 36.785156 29.277344 36.722656 C 30.640625 36.660156 31.570312 36.445312 32.386719 36.128906 C 33.226562 35.800781 33.9375 35.363281 34.652344 34.652344 C 35.363281 33.9375 35.800781 33.226562 36.128906 32.382812 C 36.441406 31.570312 36.660156 30.640625 36.722656 29.277344 C 36.785156 27.910156 36.800781 27.476562 36.800781 24 C 36.800781 20.523438 36.785156 20.085938 36.722656 18.722656 C 36.660156 17.359375 36.441406 16.429688 36.128906 15.617188 C 35.800781 14.773438 35.363281 14.058594 34.652344 13.347656 C 33.9375 12.636719 33.226562 12.199219 32.382812 11.871094 C 31.566406 11.554688 30.636719 11.339844 29.273438 11.277344 C 27.910156 11.214844 27.472656 11.199219 23.996094 11.199219 Z M 24 11.199219 " /><path style=" stroke:none;fill-rule:evenodd;fill:rgb(0%,0%,0%);fill-opacity:1;" d="M 22.851562 13.507812 C 23.195312 13.507812 23.574219 13.507812 24 13.507812 C 27.417969 13.507812 27.824219 13.519531 29.171875 13.582031 C 30.421875 13.636719 31.097656 13.847656 31.550781 14.019531 C 32.148438 14.253906 32.574219 14.53125 33.019531 14.976562 C 33.46875 15.425781 33.746094 15.851562 33.980469 16.449219 C 34.152344 16.902344 34.363281 17.578125 34.417969 18.828125 C 34.480469 20.175781 34.496094 20.582031 34.496094 23.996094 C 34.496094 27.414062 34.480469 27.820312 34.417969 29.167969 C 34.363281 30.414062 34.152344 31.09375 33.980469 31.542969 C 33.746094 32.140625 33.46875 32.566406 33.019531 33.015625 C 32.574219 33.460938 32.148438 33.738281 31.550781 33.972656 C 31.097656 34.148438 30.421875 34.355469 29.171875 34.414062 C 27.824219 34.472656 27.417969 34.488281 24 34.488281 C 20.582031 34.488281 20.179688 34.472656 18.828125 34.414062 C 17.582031 34.355469 16.902344 34.148438 16.453125 33.972656 C 15.855469 33.738281 15.429688 33.460938 14.980469 33.015625 C 14.53125 32.566406 14.253906 32.140625 14.023438 31.542969 C 13.847656 31.09375 13.636719 30.414062 13.582031 29.167969 C 13.519531 27.816406 13.507812 27.414062 13.507812 23.992188 C 13.507812 20.574219 13.519531 20.171875 13.582031 18.824219 C 13.636719 17.574219 13.847656 16.898438 14.023438 16.445312 C 14.253906 15.847656 14.53125 15.421875 14.980469 14.976562 C 15.429688 14.527344 15.855469 14.25 16.453125 14.015625 C 16.902344 13.839844 17.582031 13.632812 18.828125 13.574219 C 20.007812 13.523438 20.46875 13.507812 22.851562 13.503906 Z M 30.832031 15.632812 C 29.984375 15.632812 29.296875 16.320312 29.296875 17.167969 C 29.296875 18.015625 29.984375 18.703125 30.832031 18.703125 C 31.683594 18.703125 32.371094 18.015625 32.371094 17.167969 C 32.371094 16.320312 31.683594 15.632812 30.832031 15.632812 Z M 24 17.425781 C 20.371094 17.425781 17.429688 20.371094 17.429688 24 C 17.429688 27.628906 20.371094 30.570312 24 30.570312 C 27.632812 30.570312 30.574219 27.628906 30.574219 24 C 30.574219 20.371094 27.632812 17.425781 24 17.425781 Z M 24 17.425781 " /><path style=" stroke:none;fill-rule:evenodd;fill:rgb(0%,0%,0%);fill-opacity:1;" d="M 24 19.734375 C 26.359375 19.734375 28.269531 21.644531 28.269531 24 C 28.269531 26.355469 26.359375 28.265625 24 28.265625 C 21.644531 28.265625 19.734375 26.355469 19.734375 24 C 19.734375 21.644531 21.644531 19.734375 24 19.734375 Z M 24 19.734375 " /></g></svg>