<svg xmlns="http://www.w3.org/2000/svg" xmlns:xlink="http://www.w3.org/1999/xlink" width="20" height="20" viewBox="0 0 20 20" version="1.1"><g id="surface1"><path style=" stroke:none;fill-rule:nonzero;fill:rgb(0%,0%,0%);fill-opacity:1;" d="M 10.003906 0 C 4.480469 0 0 4.480469 0 10.003906 C 0 15.527344 4.480469 20.007812 10.003906 20.007812 C 15.527344 20.007812 20.007812 15.527344 20.007812 10.003906 C 20.007812 4.480469 15.527344 0 10.003906 0 Z M 15.289062 14.597656 L 14.488281 15.398438 C 14.34375 15.542969 13.925781 15.628906 13.910156 15.628906 C 11.378906 15.652344 8.9375 14.65625 7.144531 12.863281 C 5.347656 11.066406 4.351562 8.617188 4.375 6.074219 C 4.375 6.074219 4.46875 5.667969 4.613281 5.523438 L 5.414062 4.722656 C 5.707031 4.429688 6.269531 4.296875 6.664062 4.429688 L 6.832031 4.484375 C 7.226562 4.617188 7.636719 5.050781 7.746094 5.453125 L 8.148438 6.929688 C 8.257812 7.332031 8.113281 7.902344 7.820312 8.195312 L 7.285156 8.730469 C 7.808594 10.675781 9.335938 12.203125 11.277344 12.726562 L 11.8125 12.191406 C 12.109375 11.898438 12.679688 11.753906 13.078125 11.859375 L 14.558594 12.265625 C 14.960938 12.375 15.394531 12.785156 15.527344 13.179688 L 15.582031 13.347656 C 15.710938 13.742188 15.582031 14.304688 15.289062 14.597656 Z M 15.289062 14.597656 " /></g></svg>