<svg xmlns="http://www.w3.org/2000/svg" xmlns:xlink="http://www.w3.org/1999/xlink" width="20" height="20" viewBox="0 0 20 20" version="1.1"><g id="surface1"><path style=" stroke:none;fill-rule:evenodd;fill:rgb(0%,0%,0%);fill-opacity:1;" d="M 21 12 C 21 16.96875 16.96875 21 12 21 C 7.03125 21 3 16.96875 3 12 C 3 7.03125 7.03125 3 12 3 C 16.96875 3 21 7.03125 21 12 Z M 12.75 6.90625 C 12.75 6.492188 12.414062 6.15625 12 6.15625 C 11.585938 6.15625 11.25 6.492188 11.25 6.90625 L 11.25 12.722656 L 11.574219 12.945312 L 15.238281 15.476562 C 15.578125 15.710938 16.046875 15.628906 16.28125 15.285156 C 16.519531 14.945312 16.433594 14.476562 16.089844 14.242188 L 12.75 11.933594 Z M 12.75 6.90625 " /></g></svg>